<svg id="Flat" height="512" viewBox="0 0 512 512" width="512" xmlns="http://www.w3.org/2000/svg"><g><path d="m105.344 272-1.344 8h-48v-112l8-4a20 20 0 0 1 20-20h10.344a20 20 0 0 1 19.846 17.519l11 88a20 20 0 0 1 -19.846 22.481z" fill="#79d8eb"/><path d="m88 416-8-8h-48l-8 8v48h19.17a40 40 0 0 0 37.947-27.351z" fill="#994635"/><path d="m424 416 8-8h48l8 8v48h-19.17a40 40 0 0 1 -37.947-27.351z" fill="#994635"/><path d="m444 352-4 8h-368l-16-8v-80h388a20 20 0 0 1 20 20v40a20 20 0 0 1 -20 20z" fill="#fac850"/><path d="m318.533 166.311-10.198 18.647-18.646 10.198 18.646 10.198 10.198 18.646 10.198-18.646 18.647-10.198-18.647-10.198z" fill="none"/><g fill="#fac850"><path d="m318.533 166.311-10.198 18.647-18.646 10.198 18.646 10.198 10.198 18.646 10.198-18.646 18.647-10.198-18.647-10.198z"/><path d="m220.844 80-10.198 18.646-18.646 10.198 18.646 10.198 10.198 18.647 10.198-18.647 18.647-10.198-18.647-10.198z"/><path d="m371.156 48-10.198 18.646-18.647 10.198 18.647 10.198 10.198 18.647 10.198-18.647 18.646-10.198-18.646-10.198z"/></g><path d="m468 352h-404v-212a20 20 0 0 0 -20-20h-20v296h464v-44a20 20 0 0 0 -20-20z" fill="#fa5d3f"/><path d="m208 256h206a10 10 0 0 1 10 10v54a0 0 0 0 1 0 0h-216a0 0 0 0 1 0 0v-64a0 0 0 0 1 0 0z" fill="#79d8eb"/><path d="m160 256h48v64h-48z" fill="#e4f7fb"/></g></svg>