<svg id="Layer_1" enable-background="new 0 0 512 512" height="512" viewBox="0 0 512 512" width="512" xmlns="http://www.w3.org/2000/svg"><path d="m124 37 .1 138.7 39.9.3v-139z" fill="#6d7486"/><g><path d="m144 37h-20l.1 138.7 39.9.3v-.2l-19.9-.1z" fill="#565d6d"/></g><path d="m367.1 253.3c-22.4.1-40.5 18.2-40.5 40.6v147.8.3c-.1 15.8-12.9 28.5-28.7 28.4s-28.5-12.9-28.4-28.7v-325.1c0-22.4-18.1-40.6-40.5-40.6h-30.4v12h30.4c15.7.1 28.5 12.8 28.5 28.6v325.1c0 22.4 18.1 40.6 40.5 40.6 22.4-.1 40.5-18.2 40.5-40.6v-147.8c0-15.8 12.7-28.6 28.5-28.6h15.4v-12z" fill="#d4e1f4"/><path d="m183.6 165-79.2-1c-23.8 14.4-38.4 40.2-38.4 68.1v262.9h156v-262.9c0-28.8-15.3-54.1-38.4-67.1z" fill="#eb7288"/><path d="m104.4 164c-23.8 14.4-38.4 40.2-38.4 68.1v262.9h30v-262.9c0-27.6 14.3-53.3 37.8-67.7z" fill="#ce677d"/><path d="m104 164h.4z" fill="#eb7288"/><path d="m132.5 251.6h89.6v199.9h-89.6z" fill="#d4e1f4"/><g fill="#bac8d8"><path d="m178.5 309c-3.3 0-6 2.7-6 6s2.7 6 6 6h43.5v-12z"/><path d="m156.5 351c0 3.3 2.7 6 6 6h59.5v-12h-59.5c-3.3 0-6 2.7-6 6z"/><path d="m156.5 391c0 3.3 2.7 6 6 6h59.5v-12h-59.5c-3.3 0-6 2.7-6 6z"/></g><path d="m89.3 388.7c-3.3 0-6-2.7-6-6v-99.7c0-3.3 2.7-6 6-6s6 2.7 6 6v99.7c0 3.3-2.7 6-6 6z" fill="#f4f8fc"/><path d="m89.3 268.6c-3.3 0-6-2.7-6-6v-5.4c0-3.3 2.7-6 6-6s6 2.7 6 6v5.4c0 3.3-2.7 6-6 6z" fill="#f4f8fc"/><path id="XMLID_14_" d="m113 17h62v22h-62z" fill="#7c707c"/><path id="XMLID_13_" d="m188.8 68h-93.8c-3.9-.1-7.7 1.4-10.6 4.2-2.8 2.7-4.4 6.4-4.4 10.2.1 8.1 6.7 14.7 14.8 14.6h93.7c3.9.1 7.7-1.4 10.6-4.1 2.8-2.7 4.4-6.4 4.4-10.2 0-8.2-6.6-14.7-14.7-14.7z" fill="#7c707c"/><path id="XMLID_12_" d="m113 17h20v22h-20z" fill="#635763"/><circle id="XMLID_1_" cx="144.2" cy="165.7" fill="#5fcda4" r="39.6"/><path id="XMLID_5_" d="m144 146c-3.3 0-6 2.7-6 6v28.7h12v-28.7c0-3.3-2.7-6-6-6z" fill="#eadf53"/><g id="XMLID_2_"><path id="XMLID_6_" d="m144.2 205.3c17.5 0 32.3-11.3 37.5-27.1h-75.1c5.3 15.7 20.1 27.1 37.6 27.1z" fill="#6d7486"/></g><path id="XMLID_4_" d="m110.1 82.4c0-3.9 1.6-7.6 4.4-10.2 2.8-2.7 6.6-4.2 10.6-4.2h-30.1c-3.9-.1-7.7 1.4-10.6 4.2-2.8 2.7-4.4 6.4-4.4 10.2.1 8.1 6.7 14.7 14.8 14.6h30c-8 .1-14.7-6.5-14.7-14.6z" fill="#635763"/><g id="XMLID_46_"><path id="XMLID_47_" d="m425.3 211.9v90h-.5c-24.8 0-44.9-20.2-44.9-45 0-12.4 5-23.7 13.2-31.8 8.1-8.2 19.4-13.2 31.8-13.2z" fill="#add3fb"/></g><path d="m437.5 199c-7.2 0-13.5 5.6-13.5 12.8v90.2c0 7.3 6.2 12.9 13.5 12.9h7.5v-115.9z" fill="#90bae0"/></svg>